<?xml version="1.0" encoding="utf-8"?>
<!-- Generator: Adobe Illustrator 17.0.0, SVG Export Plug-In . SVG Version: 6.00 Build 0)  -->
<!DOCTYPE svg PUBLIC "-//W3C//DTD SVG 1.1//EN" "http://www.w3.org/Graphics/SVG/1.1/DTD/svg11.dtd">
<svg version="1.1" id="Layer_1" xmlns="http://www.w3.org/2000/svg" xmlns:xlink="http://www.w3.org/1999/xlink" x="0px" y="0px"
	 width="2000px" height="2000px" viewBox="0 0 2000 2000" enable-background="new 0 0 2000 2000" xml:space="preserve">
<rect x="1.085" y="-7.12" fill="#100046" width="1998.915" height="2013.667"/>
<g>
	<g>
		<g>
			<g>
				<defs>
					<filter id="Adobe_OpacityMaskFilter" filterUnits="userSpaceOnUse" x="552.578" y="876.539" width="164.531" height="246.348">
						<feFlood  style="flood-color:white;flood-opacity:1" result="back"/>
						<feBlend  in="SourceGraphic" in2="back" mode="normal"/>
					</filter>
				</defs>
				<mask maskUnits="userSpaceOnUse" x="552.578" y="876.539" width="164.531" height="246.348" id="SVGID_1_">
					<g filter="url(#Adobe_OpacityMaskFilter)">
						<g>
							<g>
								<g>
									<g>
										<rect x="638.893" y="904.804" width="7.8" height="7.799"/>
										<rect x="622.994" y="904.804" width="7.799" height="7.799"/>
									</g>
									<g>
										<rect x="638.893" y="921.232" width="7.8" height="7.799"/>
										<rect x="622.994" y="921.232" width="7.799" height="7.799"/>
									</g>
									<g>
										<rect x="638.893" y="937.658" width="7.8" height="7.8"/>
										<rect x="622.994" y="937.658" width="7.799" height="7.8"/>
									</g>
									<g>
										<rect x="638.893" y="954.087" width="7.8" height="7.798"/>
										<rect x="622.994" y="954.087" width="7.799" height="7.798"/>
									</g>
									<g>
										<rect x="638.893" y="970.514" width="7.8" height="7.799"/>
										<rect x="622.994" y="970.514" width="7.799" height="7.799"/>
									</g>
								</g>
							</g>
							<g>
								<g>
									<g>
										<rect x="622.994" y="1086.822" width="7.799" height="7.799"/>
										<rect x="638.893" y="1086.822" width="7.8" height="7.799"/>
									</g>
									<g>
										<rect x="622.994" y="1070.395" width="7.799" height="7.799"/>
										<rect x="638.893" y="1070.395" width="7.8" height="7.799"/>
									</g>
									<g>
										<rect x="622.994" y="1053.968" width="7.799" height="7.799"/>
										<rect x="638.893" y="1053.968" width="7.8" height="7.799"/>
									</g>
									<g>
										<rect x="622.994" y="1037.54" width="7.799" height="7.8"/>
										<rect x="638.893" y="1037.54" width="7.8" height="7.8"/>
									</g>
									<g>
										<rect x="622.994" y="1021.113" width="7.799" height="7.799"/>
										<rect x="638.893" y="1021.113" width="7.8" height="7.799"/>
									</g>
								</g>
							</g>
						</g>
					</g>
				</mask>
				<g mask="url(#SVGID_1_)">
					<g>
						<g>
							<linearGradient id="SVGID_2_" gradientUnits="userSpaceOnUse" x1="634.8431" y1="876.0756" x2="634.8431" y2="1113.8982">
								<stop  offset="0" style="stop-color:#EA64FA"/>
								<stop  offset="1" style="stop-color:#8B01FF"/>
							</linearGradient>
							<polygon fill="url(#SVGID_2_)" points="656.441,989.589 656.441,876.539 613.245,899.771 613.245,989.589 							"/>
							<linearGradient id="SVGID_3_" gradientUnits="userSpaceOnUse" x1="634.8431" y1="876.0741" x2="634.8431" y2="1113.8982">
								<stop  offset="0" style="stop-color:#EA64FA"/>
								<stop  offset="1" style="stop-color:#8B01FF"/>
							</linearGradient>
							<polygon fill="url(#SVGID_3_)" points="656.441,1009.836 656.441,1122.887 613.245,1099.654 613.245,1009.836 							"/>
							<linearGradient id="SVGID_4_" gradientUnits="userSpaceOnUse" x1="686.775" y1="876.076" x2="686.775" y2="1113.8988">
								<stop  offset="0" style="stop-color:#EA64FA"/>
								<stop  offset="1" style="stop-color:#8B01FF"/>
							</linearGradient>
							<polygon fill="url(#SVGID_4_)" points="717.109,951.997 717.109,1080.964 681.206,1062.485 681.206,959.904 656.441,972.33 
								656.441,920.547 							"/>
						</g>
					</g>
					<g>
						<g>
							<linearGradient id="SVGID_5_" gradientUnits="userSpaceOnUse" x1="582.9113" y1="876.076" x2="582.9113" y2="1113.8988">
								<stop  offset="0" style="stop-color:#EA64FA"/>
								<stop  offset="1" style="stop-color:#8B01FF"/>
							</linearGradient>
							<polygon fill="url(#SVGID_5_)" points="552.578,1047.429 552.578,918.462 588.479,936.94 588.479,1039.522 613.245,1027.097 
								613.245,1078.879 							"/>
						</g>
					</g>
				</g>
			</g>
			<g>
				<g>
					<g>
						<rect x="594.961" y="963.423" fill="#FFFFFF" width="3.373" height="3.373"/>
						<rect x="601.836" y="963.423" fill="#FFFFFF" width="3.373" height="3.373"/>
					</g>
					<g>
						<rect x="594.961" y="976.98" fill="#FFFFFF" width="3.373" height="3.373"/>
						<rect x="601.836" y="976.98" fill="#FFFFFF" width="3.373" height="3.373"/>
					</g>
					<g>
						<rect x="594.961" y="990.537" fill="#FFFFFF" width="3.373" height="3.373"/>
						<rect x="601.836" y="990.537" fill="#FFFFFF" width="3.373" height="3.373"/>
					</g>
					<g>
						<rect x="594.961" y="1004.093" fill="#FFFFFF" width="3.373" height="3.373"/>
						<rect x="601.836" y="1004.093" fill="#FFFFFF" width="3.373" height="3.373"/>
					</g>
					<g>
						<rect x="594.961" y="1017.651" fill="#FFFFFF" width="3.373" height="3.373"/>
						<rect x="601.836" y="1017.651" fill="#FFFFFF" width="3.373" height="3.373"/>
					</g>
				</g>
			</g>
			<g>
				<g>
					<g>
						<rect x="671.352" y="1032.629" fill="#FFFFFF" width="3.373" height="3.373"/>
						<rect x="664.477" y="1032.629" fill="#FFFFFF" width="3.373" height="3.373"/>
					</g>
					<g>
						<rect x="671.352" y="1019.073" fill="#FFFFFF" width="3.373" height="3.373"/>
						<rect x="664.477" y="1019.073" fill="#FFFFFF" width="3.373" height="3.373"/>
					</g>
					<g>
						<rect x="671.352" y="1005.515" fill="#FFFFFF" width="3.373" height="3.373"/>
						<rect x="664.477" y="1005.515" fill="#FFFFFF" width="3.373" height="3.373"/>
					</g>
					<g>
						<rect x="671.352" y="991.959" fill="#FFFFFF" width="3.373" height="3.373"/>
						<rect x="664.477" y="991.959" fill="#FFFFFF" width="3.373" height="3.373"/>
					</g>
					<g>
						<rect x="671.352" y="978.402" fill="#FFFFFF" width="3.373" height="3.372"/>
						<rect x="664.477" y="978.402" fill="#FFFFFF" width="3.373" height="3.372"/>
					</g>
				</g>
			</g>
		</g>
	</g>
	<g>
		<g>
			<g>
				<g>
					<g>
						<g>
							<path fill="#FFFFFF" d="M769.175,1056.319h-14.554v-90.955h14.554v38.2h49.245v-38.2h14.684v90.955H818.42v-39.242h-49.245
								V1056.319z"/>
							<path fill="#FFFFFF" d="M1024.262,1056.319v-18.06h-48.723v-13.514l49.376-59.381h13.381v59.381h12.345v13.514h-12.345v18.06
								H1024.262z M1024.262,986.413l-31.833,38.332h31.833V986.413z"/>
							<path fill="#FFFFFF" d="M1063.786,965.346v13.53h66.23v-13.53H1063.786z M1063.786,1042.802v13.53h66.918v-13.53H1063.786z
								 M1123.153,1003.584h-59.367v13.482h59.367V1003.584z"/>
							<path fill="#FFFFFF" d="M1191.493,1004.216l-12.732,2.208c-1.557-5.023-5.975-7.537-13.253-7.537
								c-3.291,0-5.979,0.651-8.058,1.95c-2.078,1.298-3.116,3.076-3.116,5.326c0,2.946,2.164,5.198,6.496,6.757l15.202,5.197
								c5.803,2.167,10.028,4.808,12.669,7.928c2.642,3.117,3.964,6.972,3.964,11.563c0,6.497-2.384,11.522-7.146,15.072
								c-4.767,3.555-11.045,5.33-18.843,5.33c-7.621,0-13.816-1.67-18.581-5.004c-4.762-3.334-7.622-7.948-8.575-13.838
								l12.736-1.949c0.605,2.685,2.209,4.853,4.808,6.497c2.595,1.645,5.888,2.469,9.872,2.469c3.725,0,6.778-0.735,9.162-2.209
								c2.381-1.472,3.574-3.465,3.574-5.978c0-3.204-2.73-5.802-8.189-7.796l-15.07-5.068c-5.288-1.818-9.122-4.157-11.503-7.017
								c-2.381-2.857-3.573-6.496-3.573-10.914c0-6.496,2.297-11.477,6.887-14.942c4.593-3.462,10.699-5.197,18.321-5.197
								c6.844,0,12.475,1.539,16.893,4.613C1187.857,994.753,1190.54,998.933,1191.493,1004.216z"/>
							<path fill="#FFFFFF" d="M1198.767,1000.576v-11.824h10.267v-13.383h13.512v13.383h17.932v11.824h-17.932v33.265
								c0,2.686,0.865,4.937,2.6,6.757c1.73,1.819,3.898,2.728,6.497,2.728h8.835v12.994h-9.877c-6.064,0-11.174-1.948-15.332-5.847
								c-4.158-4.071-6.236-9.008-6.236-14.813v-35.083H1198.767z"/>
							<path fill="#FFFFFF" d="M1282.319,987.064c8.751,0,16.242,2.988,22.479,8.965v-7.276h13.513v67.567h-13.513v-7.277
								c-6.236,5.978-13.727,8.968-22.479,8.968c-9.443,0-17.368-3.381-23.776-10.137c-6.324-6.669-9.486-15.115-9.486-25.337
								c0-10.221,3.161-18.667,9.486-25.337C1264.95,990.442,1272.875,987.064,1282.319,987.064z M1283.75,1000.576
								c-5.808,0-10.7,2.123-14.685,6.366c-3.985,4.074-5.975,9.272-5.975,15.594c0,6.236,1.99,11.478,5.975,15.722
								c4.07,4.158,8.965,6.236,14.685,6.236c5.888,0,10.826-2.078,14.81-6.236c3.985-4.244,5.976-9.486,5.976-15.722
								c0-6.322-1.992-11.52-5.976-15.594C1294.576,1002.699,1289.638,1000.576,1283.75,1000.576z"/>
							<path fill="#FFFFFF" d="M1327.923,1000.576v-11.824h10.266v-13.383h13.513v13.383h17.931v11.824h-17.931v33.265
								c0,2.686,0.865,4.937,2.6,6.757c1.729,1.819,3.896,2.728,6.496,2.728h8.835v12.994h-9.877
								c-6.062,0-11.174-1.948-15.332-5.847c-4.157-4.071-6.236-9.008-6.236-14.813v-35.083H1327.923z"/>
							<path fill="#FFFFFF" d="M1448.247,1027.473h-56.131c1.037,5.286,3.616,9.595,7.731,12.93
								c4.111,3.336,8.986,5.003,14.618,5.003c7.623,0,13.598-2.815,17.931-8.446l13.252,4.027
								c-3.116,5.287-7.427,9.444-12.929,12.475c-5.501,3.031-11.586,4.549-18.255,4.549c-10.396,0-19.014-3.381-25.859-10.137
								c-6.928-6.757-10.393-15.203-10.393-25.337c0-10.048,3.335-18.494,10.002-25.337c6.758-6.757,15.159-10.136,25.208-10.136
								c10.048,0,18.364,3.379,24.947,10.136c6.758,6.755,10.137,15.201,10.137,25.337
								C1448.507,1022.883,1448.42,1024.529,1448.247,1027.473z M1392.247,1016.69h42.357c-1.213-5.023-3.812-9.116-7.797-12.281
								c-3.986-3.16-8.576-4.741-13.77-4.741c-4.938,0-9.339,1.581-13.19,4.741
								C1395.992,1007.574,1393.457,1011.666,1392.247,1016.69z"/>
						</g>
					</g>
				</g>
			</g>
			<path fill="#FFFFFF" d="M910.071,965.346v19.34c-1.029,0.686-2.01,1.422-2.99,2.157c-4.412,3.432-7.991,7.648-10.54,12.354
				v-33.851H910.071z"/>
			<path fill="#FFFFFF" d="M904.189,1044.861c3.726-5.148,5.882-11.422,5.882-18.187v31.326h-13.53v-5.589
				C899.533,1050.401,902.13,1047.802,904.189,1044.861z"/>
			<path fill="#FFFFFF" d="M931.445,988.19c-8.088,0-15.491,2.745-21.374,7.354c-8.235,6.373-13.53,16.373-13.53,27.6v4.217
				c0,9.805-7.942,17.796-17.795,17.796c-9.854,0-17.795-7.991-17.795-17.796v-38.63h-13.53v37.944
				c0,17.305,14.021,31.326,31.326,31.326c6.617,0,12.745-2.059,17.795-5.589c2.991-2.009,5.589-4.608,7.648-7.549
				c1.666,2.157,3.676,4.118,5.882,5.833c5.883,4.608,13.286,7.305,21.374,7.305c19.266,0,34.855-15.59,34.855-34.856
				C966.301,1003.878,950.711,988.19,931.445,988.19z M931.445,1043.39c-11.176,0-20.246-9.069-20.246-20.247
				c0-11.177,9.07-20.246,20.246-20.246c11.177,0,20.246,9.069,20.246,20.246C951.691,1034.321,942.622,1043.39,931.445,1043.39z"/>
		</g>
	</g>
</g>
<g opacity="0.5">
	<g>
		<g>
			<path fill="#FFFFFF" d="M652.571,1475.867h7.536v1.712h-9.638v-20.991h2.102V1475.867z"/>
			<path fill="#FFFFFF" d="M667.013,1458.3v7.838h7.959v1.741h-7.959v7.958h8.859v1.741h-10.96v-21.02h10.96v1.741H667.013z"/>
			<path fill="#FFFFFF" d="M694.1,1456.588v1.743h-5.826v19.248h-2.102v-19.248h-5.856v-1.743H694.1z"/>
			<path fill="#FFFFFF" d="M711.516,1456.588v1.743h-5.826v19.248h-2.102v-19.248h-5.855v-1.743H711.516z"/>
			<path fill="#FFFFFF" d="M718.752,1458.3v7.838h7.959v1.741h-7.959v7.958h8.859v1.741h-10.96v-21.02h10.96v1.741H718.752z"/>
			<path fill="#FFFFFF" d="M744.727,1477.579l-5.195-8.768h-3.874v8.768h-2.102v-20.991h6.307c2.341,0,4.118,0.561,5.33,1.683
				c1.21,1.12,1.816,2.593,1.816,4.413c0,1.522-0.435,2.819-1.305,3.889c-0.873,1.071-2.158,1.767-3.859,2.087l5.403,8.919H744.727z
				 M735.658,1467.099h4.235c1.64,0,2.877-0.401,3.707-1.201c0.831-0.801,1.246-1.872,1.246-3.214c0-1.381-0.401-2.447-1.2-3.198
				c-0.802-0.75-2.062-1.126-3.783-1.126h-4.206V1467.099z"/>
			<path fill="#FFFFFF" d="M778.603,1456.588v20.991h-2.104v-9.819h-11.381v9.819h-2.101v-20.991h2.101v9.429h11.381v-9.429H778.603
				z"/>
		</g>
		<g>
			<g>
				<g>
					<g opacity="0.2">
						<defs>
							
								<filter id="Adobe_OpacityMaskFilter_1_" filterUnits="userSpaceOnUse" x="680.854" y="1336.596" width="67.363" height="100.826">
								<feFlood  style="flood-color:white;flood-opacity:1" result="back"/>
								<feBlend  in="SourceGraphic" in2="back" mode="normal"/>
							</filter>
						</defs>
						<mask maskUnits="userSpaceOnUse" x="680.854" y="1336.596" width="67.363" height="100.826" id="SVGID_6_">
							<g filter="url(#Adobe_OpacityMaskFilter_1_)">
								<g>
									<g>
										<g>
											<g>
												<rect x="716.199" y="1348.149" width="3.192" height="3.192"/>
												<rect x="709.692" y="1348.149" width="3.192" height="3.192"/>
											</g>
											<g>
												<rect x="716.199" y="1354.872" width="3.192" height="3.193"/>
												<rect x="709.692" y="1354.872" width="3.192" height="3.193"/>
											</g>
											<g>
												<rect x="716.199" y="1361.595" width="3.192" height="3.193"/>
												<rect x="709.692" y="1361.595" width="3.192" height="3.193"/>
											</g>
											<g>
												<rect x="716.199" y="1368.32" width="3.192" height="3.192"/>
												<rect x="709.692" y="1368.32" width="3.192" height="3.192"/>
											</g>
											<g>
												<rect x="716.199" y="1375.043" width="3.192" height="3.192"/>
												<rect x="709.692" y="1375.043" width="3.192" height="3.192"/>
											</g>
										</g>
									</g>
									<g>
										<g>
											<g>
												<rect x="709.692" y="1422.646" width="3.192" height="3.193"/>
												<rect x="716.199" y="1422.646" width="3.192" height="3.193"/>
											</g>
											<g>
												<rect x="709.692" y="1415.923" width="3.192" height="3.193"/>
												<rect x="716.199" y="1415.923" width="3.192" height="3.193"/>
											</g>
											<g>
												<rect x="709.692" y="1409.2" width="3.192" height="3.192"/>
												<rect x="716.199" y="1409.2" width="3.192" height="3.192"/>
											</g>
											<g>
												<rect x="709.692" y="1402.476" width="3.192" height="3.192"/>
												<rect x="716.199" y="1402.476" width="3.192" height="3.192"/>
											</g>
											<g>
												<rect x="709.692" y="1395.752" width="3.192" height="3.192"/>
												<rect x="716.199" y="1395.752" width="3.192" height="3.192"/>
											</g>
										</g>
									</g>
								</g>
							</g>
						</mask>
						<g mask="url(#SVGID_6_)">
							<g>
								<g>
									<polygon fill="#FFFFFF" points="723.37,1336.596 723.37,1382.862 705.701,1382.862 705.701,1346.089 									"/>
									<polygon fill="#FFFFFF" points="723.37,1391.117 723.37,1437.422 705.701,1427.89 705.701,1391.117 									"/>
									<polygon fill="#FFFFFF" points="748.217,1367.466 748.217,1420.233 733.5,1412.655 733.5,1370.697 723.37,1375.802 
										723.37,1354.584 									"/>
								</g>
							</g>
							<g>
								<g>
									<polygon fill="#FFFFFF" points="705.701,1398.217 705.701,1419.395 680.854,1406.513 680.854,1353.746 693.297,1360.128 
										695.57,1361.285 695.57,1403.282 									"/>
								</g>
							</g>
						</g>
					</g>
					<g>
						<g>
							<g>
								<rect x="698.203" y="1372.133" fill="#FFFFFF" width="1.396" height="1.396"/>
								<rect x="701.035" y="1372.133" fill="#FFFFFF" width="1.396" height="1.396"/>
							</g>
							<g>
								<rect x="698.203" y="1377.676" fill="#FFFFFF" width="1.396" height="1.396"/>
								<rect x="701.035" y="1377.676" fill="#FFFFFF" width="1.396" height="1.396"/>
							</g>
							<g>
								<rect x="698.203" y="1383.22" fill="#FFFFFF" width="1.396" height="1.395"/>
								<rect x="701.035" y="1383.22" fill="#FFFFFF" width="1.396" height="1.395"/>
							</g>
							<g>
								<rect x="698.203" y="1388.804" fill="#FFFFFF" width="1.396" height="1.356"/>
								<rect x="701.035" y="1388.804" fill="#FFFFFF" width="1.396" height="1.356"/>
							</g>
							<g>
								<rect x="698.203" y="1394.348" fill="#FFFFFF" width="1.396" height="1.356"/>
								<rect x="701.035" y="1394.348" fill="#FFFFFF" width="1.396" height="1.356"/>
							</g>
						</g>
					</g>
					<g>
						<g>
							<g>
								<rect x="729.472" y="1400.451" fill="#FFFFFF" width="1.396" height="1.395"/>
								<rect x="726.68" y="1400.451" fill="#FFFFFF" width="1.356" height="1.395"/>
							</g>
							<g>
								<rect x="729.472" y="1394.907" fill="#FFFFFF" width="1.396" height="1.395"/>
								<rect x="726.68" y="1394.907" fill="#FFFFFF" width="1.356" height="1.395"/>
							</g>
							<g>
								<rect x="729.472" y="1389.363" fill="#FFFFFF" width="1.396" height="1.395"/>
								<rect x="726.68" y="1389.363" fill="#FFFFFF" width="1.356" height="1.395"/>
							</g>
							<g>
								<rect x="729.472" y="1383.819" fill="#FFFFFF" width="1.396" height="1.396"/>
								<rect x="726.68" y="1383.819" fill="#FFFFFF" width="1.356" height="1.396"/>
							</g>
							<g>
								<rect x="729.472" y="1378.275" fill="#FFFFFF" width="1.396" height="1.396"/>
								<rect x="726.68" y="1378.275" fill="#FFFFFF" width="1.356" height="1.396"/>
							</g>
						</g>
					</g>
				</g>
			</g>
			<path fill="#FFFFFF" d="M723.37,1375.802v7.06h-17.669v-16.353l-10.13-5.224v41.998l10.13-5.065v-7.1h17.669v16.353l10.131,5.185
				v-41.958L723.37,1375.802z"/>
			<rect x="698.203" y="1394.348" opacity="0.2" fill="#100046" width="1.396" height="1.356"/>
			<rect x="698.203" y="1388.804" opacity="0.2" fill="#100046" width="1.396" height="1.356"/>
			<rect x="698.203" y="1383.22" opacity="0.2" fill="#100046" width="1.396" height="1.395"/>
			<rect x="698.203" y="1377.676" opacity="0.2" fill="#100046" width="1.396" height="1.396"/>
			<rect x="698.203" y="1372.133" opacity="0.2" fill="#100046" width="1.396" height="1.396"/>
			<rect x="701.035" y="1394.348" opacity="0.2" fill="#100046" width="1.396" height="1.356"/>
			<rect x="701.035" y="1388.804" opacity="0.2" fill="#100046" width="1.396" height="1.356"/>
			<rect x="701.035" y="1383.22" opacity="0.2" fill="#100046" width="1.396" height="1.395"/>
			<rect x="701.035" y="1377.676" opacity="0.2" fill="#100046" width="1.396" height="1.396"/>
			<rect x="701.035" y="1372.133" opacity="0.2" fill="#100046" width="1.396" height="1.396"/>
			<rect x="726.68" y="1400.451" opacity="0.2" fill="#100046" width="1.356" height="1.395"/>
			<rect x="726.68" y="1394.907" opacity="0.2" fill="#100046" width="1.356" height="1.395"/>
			<rect x="726.68" y="1389.363" opacity="0.2" fill="#100046" width="1.356" height="1.395"/>
			<rect x="726.68" y="1383.819" opacity="0.2" fill="#100046" width="1.356" height="1.396"/>
			<rect x="726.68" y="1378.275" opacity="0.2" fill="#100046" width="1.356" height="1.396"/>
			<rect x="729.472" y="1400.451" opacity="0.2" fill="#100046" width="1.396" height="1.395"/>
			<rect x="729.472" y="1394.907" opacity="0.2" fill="#100046" width="1.396" height="1.395"/>
			<rect x="729.472" y="1389.363" opacity="0.2" fill="#100046" width="1.396" height="1.395"/>
			<rect x="729.472" y="1383.819" opacity="0.2" fill="#100046" width="1.396" height="1.396"/>
			<rect x="729.472" y="1378.275" opacity="0.2" fill="#100046" width="1.396" height="1.396"/>
		</g>
	</g>
	<g>
		<g>
			<path fill="#FFFFFF" d="M899.409,1477.393h-2.105l-11.639-17.682v17.682h-2.105v-21.02h2.105l11.639,17.651v-17.651h2.105
				V1477.393z"/>
			<path fill="#FFFFFF" d="M908.008,1456.373v13.232c0,2.085,0.497,3.628,1.49,4.631c0.991,1.002,2.349,1.503,4.074,1.503
				c1.723,0,3.071-0.495,4.043-1.488c0.974-0.992,1.458-2.542,1.458-4.646v-13.232h2.105v13.201c0,2.666-0.704,4.671-2.119,6.014
				c-1.412,1.344-3.252,2.015-5.518,2.015c-2.263,0-4.104-0.671-5.518-2.015c-1.412-1.342-2.119-3.347-2.119-6.014v-13.201H908.008z
				"/>
			<path fill="#FFFFFF" d="M948.213,1456.644v20.749h-2.104v-16.569l-7.398,16.569h-1.535l-7.398-16.509v16.509h-2.104v-20.749
				h2.224l8.029,17.982l8.029-17.982H948.213z"/>
			<path fill="#FFFFFF" d="M956.902,1458.087v7.849h7.971v1.744h-7.971v7.969h8.872v1.744h-10.976v-21.049h10.976v1.744H956.902z"/>
			<path fill="#FFFFFF" d="M982.914,1477.393l-5.202-8.781h-3.88v8.781h-2.104v-21.02h6.316c2.345,0,4.124,0.562,5.337,1.685
				c1.212,1.122,1.818,2.596,1.818,4.419c0,1.525-0.435,2.823-1.307,3.895c-0.874,1.073-2.161,1.769-3.864,2.09l5.411,8.931H982.914
				z M973.832,1466.898h4.241c1.642,0,2.881-0.402,3.712-1.203c0.832-0.802,1.248-1.875,1.248-3.218
				c0-1.383-0.401-2.451-1.201-3.202c-0.802-0.751-2.066-1.128-3.788-1.128h-4.212V1466.898z"/>
			<path fill="#FFFFFF" d="M993.287,1456.373v21.02h-2.104v-21.02H993.287z"/>
			<path fill="#FFFFFF" d="M1000.265,1461.32c0.9-1.634,2.134-2.907,3.697-3.819c1.564-0.912,3.309-1.368,5.232-1.368
				c2.347,0,4.356,0.556,6.03,1.669c1.674,1.113,2.893,2.681,3.654,4.706h-2.466c-0.6-1.423-1.517-2.537-2.751-3.338
				c-1.234-0.802-2.722-1.202-4.467-1.202c-1.544,0-2.932,0.361-4.165,1.082c-1.232,0.721-2.2,1.758-2.9,3.111
				c-0.703,1.354-1.052,2.922-1.052,4.706c0,1.785,0.35,3.349,1.052,4.692c0.7,1.343,1.668,2.376,2.9,3.098
				c1.233,0.721,2.621,1.082,4.165,1.082c1.745,0,3.233-0.395,4.467-1.187c1.233-0.791,2.151-1.889,2.751-3.294h2.466
				c-0.761,2.006-1.984,3.56-3.668,4.662c-1.684,1.102-3.688,1.654-6.016,1.654c-1.923,0-3.668-0.456-5.232-1.369
				c-1.563-0.912-2.797-2.18-3.697-3.804c-0.903-1.624-1.354-3.467-1.354-5.533C998.911,1464.803,999.362,1462.955,1000.265,1461.32
				z"/>
			<path fill="#FFFFFF" d="M1037.043,1472.401h-9.564l-1.833,4.992h-2.227l7.669-20.749h2.374l7.64,20.749h-2.227L1037.043,1472.401
				z M1036.412,1470.657l-4.15-11.367l-4.151,11.367H1036.412z"/>
			<path fill="#FFFFFF" d="M1048.378,1475.679h7.547v1.714h-9.652v-21.02h2.104V1475.679z"/>
			<path fill="#FFFFFF" d="M1069.398,1472.281v-1.594l10.946-14.736h2.496v14.495h3.216v1.835h-3.216v5.112h-2.075v-5.112H1069.398z
				 M1080.855,1458.268l-9.023,12.178h9.023V1458.268z"/>
		</g>
		<g>
			<g>
				<g>
					<g>
						<defs>
							
								<filter id="Adobe_OpacityMaskFilter_2_" filterUnits="userSpaceOnUse" x="951.126" y="1336.41" width="67.365" height="100.828">
								<feFlood  style="flood-color:white;flood-opacity:1" result="back"/>
								<feBlend  in="SourceGraphic" in2="back" mode="normal"/>
							</filter>
						</defs>
						<mask maskUnits="userSpaceOnUse" x="951.126" y="1336.41" width="67.365" height="100.828" id="SVGID_7_">
							<g filter="url(#Adobe_OpacityMaskFilter_2_)">
								<g>
									<g>
										<g>
											<g>
												<rect x="986.472" y="1347.962" width="3.192" height="3.192"/>
												<rect x="979.965" y="1347.962" width="3.192" height="3.192"/>
											</g>
											<g>
												<rect x="986.472" y="1354.686" width="3.192" height="3.192"/>
												<rect x="979.965" y="1354.686" width="3.192" height="3.192"/>
											</g>
											<g>
												<rect x="986.472" y="1361.409" width="3.192" height="3.192"/>
												<rect x="979.965" y="1361.409" width="3.192" height="3.192"/>
											</g>
											<g>
												<rect x="986.472" y="1368.133" width="3.192" height="3.192"/>
												<rect x="979.965" y="1368.133" width="3.192" height="3.192"/>
											</g>
											<g>
												<rect x="986.472" y="1374.856" width="3.192" height="3.193"/>
												<rect x="979.965" y="1374.856" width="3.192" height="3.193"/>
											</g>
										</g>
									</g>
									<g>
										<g>
											<g>
												<rect x="979.965" y="1422.46" width="3.192" height="3.193"/>
												<rect x="986.472" y="1422.46" width="3.192" height="3.193"/>
											</g>
											<g>
												<rect x="979.965" y="1415.737" width="3.192" height="3.193"/>
												<rect x="986.472" y="1415.737" width="3.192" height="3.193"/>
											</g>
											<g>
												<rect x="979.965" y="1409.013" width="3.192" height="3.193"/>
												<rect x="986.472" y="1409.013" width="3.192" height="3.193"/>
											</g>
											<g>
												<rect x="979.965" y="1402.29" width="3.192" height="3.193"/>
												<rect x="986.472" y="1402.29" width="3.192" height="3.193"/>
											</g>
											<g>
												<rect x="979.965" y="1395.566" width="3.192" height="3.192"/>
												<rect x="986.472" y="1395.566" width="3.192" height="3.192"/>
											</g>
										</g>
									</g>
								</g>
							</g>
						</mask>
						<g mask="url(#SVGID_7_)">
							<g opacity="0.2">
								<g>
									<polygon fill="#FFFFFF" points="993.642,1336.41 993.642,1382.675 975.974,1382.675 975.974,1345.902 									"/>
									<polygon fill="#FFFFFF" points="1018.49,1367.28 1018.49,1420.046 1003.773,1412.469 1003.773,1370.51 993.642,1375.615 
										993.642,1354.397 									"/>
								</g>
							</g>
							<g>
								<polygon fill="#FFFFFF" points="993.642,1390.931 993.642,1437.237 975.973,1427.704 975.973,1390.931 								"/>
								<polygon fill="#FFFFFF" points="975.973,1398.031 975.973,1419.21 951.126,1406.328 951.126,1353.559 963.57,1359.941 
									965.844,1361.098 965.844,1403.097 								"/>
							</g>
						</g>
					</g>
					<g>
						<g>
							<g>
								<rect x="968.476" y="1371.946" fill="#FFFFFF" width="1.396" height="1.396"/>
								<rect x="971.307" y="1371.946" fill="#FFFFFF" width="1.396" height="1.396"/>
							</g>
							<g>
								<rect x="968.476" y="1377.49" fill="#FFFFFF" width="1.396" height="1.396"/>
								<rect x="971.307" y="1377.49" fill="#FFFFFF" width="1.396" height="1.396"/>
							</g>
							<g>
								<rect x="968.476" y="1383.034" fill="#FFFFFF" width="1.396" height="1.397"/>
								<rect x="971.307" y="1383.034" fill="#FFFFFF" width="1.396" height="1.397"/>
							</g>
							<g>
								<rect x="968.476" y="1388.618" fill="#FFFFFF" width="1.396" height="1.355"/>
								<rect x="971.307" y="1388.618" fill="#FFFFFF" width="1.396" height="1.355"/>
							</g>
							<g>
								<rect x="968.476" y="1394.161" fill="#FFFFFF" width="1.396" height="1.356"/>
								<rect x="971.307" y="1394.161" fill="#FFFFFF" width="1.396" height="1.356"/>
							</g>
						</g>
					</g>
					<g>
						<g>
							<g>
								<rect x="999.745" y="1400.264" fill="#FFFFFF" width="1.396" height="1.396"/>
								<rect x="996.953" y="1400.264" fill="#FFFFFF" width="1.356" height="1.396"/>
							</g>
							<g>
								<rect x="999.745" y="1394.72" fill="#FFFFFF" width="1.396" height="1.397"/>
								<rect x="996.953" y="1394.72" fill="#FFFFFF" width="1.356" height="1.397"/>
							</g>
							<g>
								<rect x="999.745" y="1389.176" fill="#FFFFFF" width="1.396" height="1.397"/>
								<rect x="996.953" y="1389.176" fill="#FFFFFF" width="1.356" height="1.397"/>
							</g>
							<g>
								<rect x="999.745" y="1383.633" fill="#FFFFFF" width="1.396" height="1.396"/>
								<rect x="996.953" y="1383.633" fill="#FFFFFF" width="1.356" height="1.396"/>
							</g>
							<g>
								<rect x="999.745" y="1378.089" fill="#FFFFFF" width="1.396" height="1.396"/>
								<rect x="996.953" y="1378.089" fill="#FFFFFF" width="1.356" height="1.396"/>
							</g>
						</g>
					</g>
				</g>
			</g>
			<path opacity="0.2" fill="#100046" d="M993.642,1375.615v7.06h-17.668v-16.352l-10.13-5.225v41.998l10.13-5.065v-7.099h17.668
				v16.353l10.131,5.185v-41.958L993.642,1375.615z"/>
			<rect x="968.476" y="1394.161" opacity="0.2" fill="#100046" width="1.396" height="1.356"/>
			<rect x="968.476" y="1388.618" opacity="0.2" fill="#100046" width="1.396" height="1.355"/>
			<rect x="968.476" y="1383.034" opacity="0.2" fill="#100046" width="1.396" height="1.397"/>
			<rect x="968.476" y="1377.49" opacity="0.2" fill="#100046" width="1.396" height="1.396"/>
			<rect x="968.476" y="1371.946" opacity="0.2" fill="#100046" width="1.396" height="1.396"/>
			<rect x="971.307" y="1394.161" opacity="0.2" fill="#100046" width="1.396" height="1.356"/>
			<rect x="971.307" y="1388.618" opacity="0.2" fill="#100046" width="1.396" height="1.355"/>
			<rect x="971.307" y="1383.034" opacity="0.2" fill="#100046" width="1.396" height="1.397"/>
			<rect x="971.307" y="1377.49" opacity="0.2" fill="#100046" width="1.396" height="1.396"/>
			<rect x="971.307" y="1371.946" opacity="0.2" fill="#100046" width="1.396" height="1.396"/>
			<rect x="996.953" y="1400.264" opacity="0.2" fill="#100046" width="1.356" height="1.396"/>
			<rect x="996.953" y="1394.72" opacity="0.2" fill="#100046" width="1.356" height="1.397"/>
			<rect x="996.953" y="1389.176" opacity="0.2" fill="#100046" width="1.356" height="1.397"/>
			<rect x="996.953" y="1383.633" opacity="0.2" fill="#100046" width="1.356" height="1.396"/>
			<rect x="996.953" y="1378.089" opacity="0.2" fill="#100046" width="1.356" height="1.396"/>
			<rect x="999.745" y="1400.264" opacity="0.2" fill="#100046" width="1.396" height="1.396"/>
			<rect x="999.745" y="1394.72" opacity="0.2" fill="#100046" width="1.396" height="1.397"/>
			<rect x="999.745" y="1389.176" opacity="0.2" fill="#100046" width="1.396" height="1.397"/>
			<rect x="999.745" y="1383.633" opacity="0.2" fill="#100046" width="1.396" height="1.396"/>
			<rect x="999.745" y="1378.089" opacity="0.2" fill="#100046" width="1.396" height="1.396"/>
		</g>
	</g>
	<g>
		<g>
			<path fill="#FFFFFF" d="M1171.067,1477.603l-5.359-9.044h-3.997v9.044h-2.166v-21.651h6.501c2.419,0,4.249,0.579,5.498,1.736
				c1.252,1.156,1.876,2.673,1.876,4.552c0,1.57-0.448,2.908-1.35,4.011c-0.897,1.105-2.223,1.823-3.976,2.154l5.576,9.199H1171.067
				z M1161.711,1466.793h4.367c1.693,0,2.969-0.412,3.826-1.238c0.856-0.826,1.285-1.931,1.285-3.316
				c0-1.423-0.412-2.523-1.24-3.298c-0.824-0.775-2.125-1.162-3.903-1.162h-4.335V1466.793z"/>
			<path fill="#FFFFFF" d="M1181.749,1457.718v8.084h8.21v1.796h-8.21v8.208h9.136v1.797h-11.302v-21.682h11.302v1.797H1181.749z"/>
			<path fill="#FFFFFF" d="M1209.565,1472.462h-9.85l-1.888,5.141h-2.292l7.9-21.372h2.447l7.864,21.372h-2.293L1209.565,1472.462z
				 M1208.916,1470.666l-4.275-11.71l-4.274,11.71H1208.916z"/>
			<path fill="#FFFFFF" d="M1221.243,1475.837h7.773v1.766h-9.939v-21.651h2.166V1475.837z"/>
			<path fill="#FFFFFF" d="M1246.485,1457.718v8.084h8.21v1.796h-8.21v8.208h9.136v1.797h-11.302v-21.682h11.302v1.797H1246.485z"/>
			<path fill="#FFFFFF" d="M1264.561,1477.077c-1.085-0.496-1.938-1.187-2.558-2.076c-0.62-0.887-0.95-1.879-0.991-2.974h2.292
				c0.106,1.052,0.567,1.978,1.394,2.771c0.825,0.796,2.036,1.193,3.626,1.193c1.464,0,2.627-0.375,3.483-1.13
				c0.856-0.754,1.285-1.709,1.285-2.865c0-0.93-0.237-1.678-0.714-2.245c-0.473-0.569-1.06-0.991-1.762-1.271
				c-0.706-0.28-1.676-0.583-2.912-0.914c-1.448-0.392-2.594-0.775-3.438-1.146c-0.848-0.371-1.57-0.951-2.169-1.736
				c-0.599-0.783-0.897-1.847-0.897-3.189c0-1.115,0.289-2.111,0.865-2.99c0.579-0.877,1.395-1.564,2.447-2.059
				c1.057-0.496,2.264-0.743,3.626-0.743c2.002,0,3.618,0.49,4.845,1.471c1.232,0.981,1.937,2.245,2.125,3.795h-2.353
				c-0.147-0.887-0.633-1.678-1.456-2.37c-0.828-0.692-1.942-1.038-3.349-1.038c-1.301,0-2.382,0.346-3.251,1.038
				c-0.868,0.691-1.301,1.635-1.301,2.835c0,0.907,0.237,1.642,0.714,2.199c0.473,0.556,1.068,0.981,1.778,1.27
				c0.714,0.29,1.681,0.6,2.896,0.928c1.407,0.394,2.541,0.781,3.409,1.162c0.865,0.381,1.599,0.965,2.199,1.75
				c0.6,0.785,0.897,1.837,0.897,3.159c0,1.013-0.269,1.971-0.803,2.881c-0.538,0.91-1.334,1.642-2.386,2.198
				c-1.052,0.559-2.313,0.836-3.777,0.836C1266.898,1477.819,1265.646,1477.573,1264.561,1477.077z"/>
			<path fill="#FFFFFF" d="M1294.001,1455.952v1.797h-6.012v19.854h-2.166v-19.854h-6.041v-1.797H1294.001z"/>
			<path fill="#FFFFFF" d="M1311.841,1472.462h-9.849l-1.889,5.141h-2.292l7.9-21.372h2.447l7.863,21.372h-2.292L1311.841,1472.462z
				 M1311.192,1470.666l-4.274-11.71l-4.275,11.71H1311.192z"/>
			<path fill="#FFFFFF" d="M1334.02,1455.952v1.797h-6.012v19.854h-2.166v-19.854h-6.041v-1.797H1334.02z"/>
			<path fill="#FFFFFF" d="M1341.48,1457.718v8.084h8.211v1.796h-8.211v8.208h9.137v1.797h-11.302v-21.682h11.302v1.797H1341.48z"/>
		</g>
		<g>
			<g>
				<g>
					<g>
						<defs>
							
								<filter id="Adobe_OpacityMaskFilter_3_" filterUnits="userSpaceOnUse" x="1221.398" y="1336.41" width="67.364" height="100.828">
								<feFlood  style="flood-color:white;flood-opacity:1" result="back"/>
								<feBlend  in="SourceGraphic" in2="back" mode="normal"/>
							</filter>
						</defs>
						<mask maskUnits="userSpaceOnUse" x="1221.398" y="1336.41" width="67.364" height="100.828" id="SVGID_8_">
							<g filter="url(#Adobe_OpacityMaskFilter_3_)">
								<g>
									<g>
										<g>
											<g>
												<rect x="1256.744" y="1347.962" width="3.192" height="3.192"/>
												<rect x="1250.237" y="1347.962" width="3.192" height="3.192"/>
											</g>
											<g>
												<rect x="1256.744" y="1354.686" width="3.192" height="3.192"/>
												<rect x="1250.237" y="1354.686" width="3.192" height="3.192"/>
											</g>
											<g>
												<rect x="1256.744" y="1361.409" width="3.192" height="3.192"/>
												<rect x="1250.237" y="1361.409" width="3.192" height="3.192"/>
											</g>
											<g>
												<rect x="1256.744" y="1368.133" width="3.192" height="3.192"/>
												<rect x="1250.237" y="1368.133" width="3.192" height="3.192"/>
											</g>
											<g>
												<rect x="1256.744" y="1374.856" width="3.192" height="3.193"/>
												<rect x="1250.237" y="1374.856" width="3.192" height="3.193"/>
											</g>
										</g>
									</g>
									<g>
										<g>
											<g>
												<rect x="1250.237" y="1422.46" width="3.192" height="3.193"/>
												<rect x="1256.744" y="1422.46" width="3.192" height="3.193"/>
											</g>
											<g>
												<rect x="1250.237" y="1415.737" width="3.192" height="3.193"/>
												<rect x="1256.744" y="1415.737" width="3.192" height="3.193"/>
											</g>
											<g>
												<rect x="1250.237" y="1409.013" width="3.192" height="3.193"/>
												<rect x="1256.744" y="1409.013" width="3.192" height="3.193"/>
											</g>
											<g>
												<rect x="1250.237" y="1402.29" width="3.192" height="3.193"/>
												<rect x="1256.744" y="1402.29" width="3.192" height="3.193"/>
											</g>
											<g>
												<rect x="1250.237" y="1395.566" width="3.192" height="3.192"/>
												<rect x="1256.744" y="1395.566" width="3.192" height="3.192"/>
											</g>
										</g>
									</g>
								</g>
							</g>
						</mask>
						<g mask="url(#SVGID_8_)">
							<g>
								<g>
									<polygon fill="#FFFFFF" points="1263.915,1336.41 1263.915,1382.675 1246.247,1382.675 1246.247,1345.902 									"/>
									<polygon opacity="0.2" fill="#FFFFFF" points="1288.763,1367.28 1288.763,1420.046 1274.045,1412.469 1274.045,1370.51 
										1263.915,1375.615 1263.915,1354.397 									"/>
								</g>
							</g>
							<g>
								<polygon fill="#FFFFFF" points="1263.915,1390.931 1263.915,1437.237 1246.246,1427.704 1246.246,1390.931 								"/>
								<polygon opacity="0.2" fill="#FFFFFF" points="1246.246,1398.031 1246.246,1419.21 1221.398,1406.328 1221.398,1353.559 
									1233.842,1359.941 1236.117,1361.098 1236.117,1403.097 								"/>
							</g>
						</g>
					</g>
					<g>
						<g>
							<rect x="1238.748" y="1371.946" fill="#FFFFFF" width="1.396" height="1.396"/>
							<rect x="1241.58" y="1371.946" fill="#FFFFFF" width="1.396" height="1.396"/>
						</g>
						<g>
							<rect x="1238.748" y="1377.49" fill="#FFFFFF" width="1.396" height="1.396"/>
							<rect x="1241.58" y="1377.49" fill="#FFFFFF" width="1.396" height="1.396"/>
						</g>
						<g>
							<rect x="1238.748" y="1383.034" fill="#FFFFFF" width="1.396" height="1.397"/>
							<rect x="1241.58" y="1383.034" fill="#FFFFFF" width="1.396" height="1.397"/>
						</g>
						<g>
							<rect x="1238.748" y="1388.618" fill="#FFFFFF" width="1.396" height="1.355"/>
							<rect x="1241.58" y="1388.618" fill="#FFFFFF" width="1.396" height="1.355"/>
						</g>
						<g>
							<rect x="1238.748" y="1394.161" fill="#FFFFFF" width="1.396" height="1.356"/>
							<rect x="1241.58" y="1394.161" fill="#FFFFFF" width="1.396" height="1.356"/>
						</g>
					</g>
					<g>
						<g>
							<g>
								<rect x="1270.018" y="1400.264" fill="#FFFFFF" width="1.396" height="1.396"/>
								<rect x="1267.225" y="1400.264" fill="#FFFFFF" width="1.356" height="1.396"/>
							</g>
							<g>
								<rect x="1270.018" y="1394.72" fill="#FFFFFF" width="1.396" height="1.397"/>
								<rect x="1267.225" y="1394.72" fill="#FFFFFF" width="1.356" height="1.397"/>
							</g>
							<g>
								<rect x="1270.018" y="1389.176" fill="#FFFFFF" width="1.396" height="1.397"/>
								<rect x="1267.225" y="1389.176" fill="#FFFFFF" width="1.356" height="1.397"/>
							</g>
							<g>
								<rect x="1270.018" y="1383.633" fill="#FFFFFF" width="1.396" height="1.396"/>
								<rect x="1267.225" y="1383.633" fill="#FFFFFF" width="1.356" height="1.396"/>
							</g>
							<g>
								<rect x="1270.018" y="1378.089" fill="#FFFFFF" width="1.396" height="1.396"/>
								<rect x="1267.225" y="1378.089" fill="#FFFFFF" width="1.356" height="1.396"/>
							</g>
						</g>
					</g>
				</g>
			</g>
			<rect x="1238.748" y="1394.161" fill="#FFFFFF" width="1.396" height="1.356"/>
			<rect x="1238.748" y="1388.618" fill="#FFFFFF" width="1.396" height="1.355"/>
			<rect x="1238.748" y="1383.034" fill="#FFFFFF" width="1.396" height="1.397"/>
			<rect x="1238.748" y="1377.49" fill="#FFFFFF" width="1.396" height="1.396"/>
			<rect x="1238.748" y="1371.946" fill="#FFFFFF" width="1.396" height="1.396"/>
			<rect x="1241.58" y="1394.161" fill="#FFFFFF" width="1.396" height="1.356"/>
			<rect x="1241.58" y="1388.618" fill="#FFFFFF" width="1.396" height="1.355"/>
			<rect x="1241.58" y="1383.034" fill="#FFFFFF" width="1.396" height="1.397"/>
			<rect x="1241.58" y="1377.49" fill="#FFFFFF" width="1.396" height="1.396"/>
			<rect x="1241.58" y="1371.946" fill="#FFFFFF" width="1.396" height="1.396"/>
			<rect x="1267.225" y="1400.264" fill="#FFFFFF" width="1.356" height="1.396"/>
			<rect x="1267.225" y="1394.72" fill="#FFFFFF" width="1.356" height="1.397"/>
			<rect x="1267.225" y="1389.176" fill="#FFFFFF" width="1.356" height="1.397"/>
			<rect x="1267.225" y="1383.633" fill="#FFFFFF" width="1.356" height="1.396"/>
			<rect x="1267.225" y="1378.089" fill="#FFFFFF" width="1.356" height="1.396"/>
			<rect x="1270.018" y="1400.264" fill="#FFFFFF" width="1.396" height="1.396"/>
			<rect x="1270.018" y="1394.72" fill="#FFFFFF" width="1.396" height="1.397"/>
			<rect x="1270.018" y="1389.176" fill="#FFFFFF" width="1.396" height="1.397"/>
			<rect x="1270.018" y="1383.633" fill="#FFFFFF" width="1.396" height="1.396"/>
			<rect x="1270.018" y="1378.089" fill="#FFFFFF" width="1.396" height="1.396"/>
		</g>
	</g>
	<g>
		<path fill="#FFFFFF" d="M851.203,1394.31v11.241h10.811v2.87h-10.811v11.336h-3.061v-11.336H837.33v-2.87h10.812v-11.241H851.203z
			"/>
	</g>
	<g>
		<path fill="#FFFFFF" d="M1121.476,1394.337v11.241h10.811v2.87h-10.811v11.336h-3.061v-11.336h-10.812v-2.87h10.812v-11.241
			H1121.476z"/>
	</g>
</g>
</svg>
