<?xml version="1.0" encoding="utf-8"?>
<!-- Generator: Adobe Illustrator 17.0.0, SVG Export Plug-In . SVG Version: 6.00 Build 0)  -->
<!DOCTYPE svg PUBLIC "-//W3C//DTD SVG 1.1//EN" "http://www.w3.org/Graphics/SVG/1.1/DTD/svg11.dtd">
<svg version="1.1" id="Layer_1" xmlns="http://www.w3.org/2000/svg" xmlns:xlink="http://www.w3.org/1999/xlink" x="0px" y="0px"
	 width="2000px" height="2000px" viewBox="0 0 2000 2000" enable-background="new 0 0 2000 2000" xml:space="preserve">
<rect x="1.085" y="0.379" fill="#100046" width="1998.915" height="1999.381"/>
<g>
	<g>
		<g>
			<g>
				<defs>
					<filter id="Adobe_OpacityMaskFilter" filterUnits="userSpaceOnUse" x="552.578" y="876.895" width="164.531" height="246.348">
						<feFlood  style="flood-color:white;flood-opacity:1" result="back"/>
						<feBlend  in="SourceGraphic" in2="back" mode="normal"/>
					</filter>
				</defs>
				<mask maskUnits="userSpaceOnUse" x="552.578" y="876.895" width="164.531" height="246.348" id="SVGID_1_">
					<g filter="url(#Adobe_OpacityMaskFilter)">
						<g>
							<g>
								<g>
									<g>
										<rect x="638.893" y="905.16" width="7.8" height="7.799"/>
										<rect x="622.994" y="905.16" width="7.799" height="7.799"/>
									</g>
									<g>
										<rect x="638.893" y="921.588" width="7.8" height="7.799"/>
										<rect x="622.994" y="921.588" width="7.799" height="7.799"/>
									</g>
									<g>
										<rect x="638.893" y="938.015" width="7.8" height="7.8"/>
										<rect x="622.994" y="938.015" width="7.799" height="7.8"/>
									</g>
									<g>
										<rect x="638.893" y="954.443" width="7.8" height="7.798"/>
										<rect x="622.994" y="954.443" width="7.799" height="7.798"/>
									</g>
									<g>
										<rect x="638.893" y="970.871" width="7.8" height="7.799"/>
										<rect x="622.994" y="970.871" width="7.799" height="7.799"/>
									</g>
								</g>
							</g>
							<g>
								<g>
									<g>
										<rect x="622.994" y="1087.179" width="7.799" height="7.799"/>
										<rect x="638.893" y="1087.179" width="7.8" height="7.799"/>
									</g>
									<g>
										<rect x="622.994" y="1070.752" width="7.799" height="7.799"/>
										<rect x="638.893" y="1070.752" width="7.8" height="7.799"/>
									</g>
									<g>
										<rect x="622.994" y="1054.324" width="7.799" height="7.799"/>
										<rect x="638.893" y="1054.324" width="7.8" height="7.799"/>
									</g>
									<g>
										<rect x="622.994" y="1037.896" width="7.799" height="7.8"/>
										<rect x="638.893" y="1037.896" width="7.8" height="7.8"/>
									</g>
									<g>
										<rect x="622.994" y="1021.469" width="7.799" height="7.799"/>
										<rect x="638.893" y="1021.469" width="7.8" height="7.799"/>
									</g>
								</g>
							</g>
						</g>
					</g>
				</mask>
				<g mask="url(#SVGID_1_)">
					<g>
						<g>
							<linearGradient id="SVGID_2_" gradientUnits="userSpaceOnUse" x1="634.8431" y1="876.4319" x2="634.8431" y2="1114.2546">
								<stop  offset="0" style="stop-color:#EA64FA"/>
								<stop  offset="1" style="stop-color:#8B01FF"/>
							</linearGradient>
							<polygon fill="url(#SVGID_2_)" points="656.441,989.945 656.441,876.895 613.245,900.128 613.245,989.945 							"/>
							<linearGradient id="SVGID_3_" gradientUnits="userSpaceOnUse" x1="634.8431" y1="876.4305" x2="634.8431" y2="1114.2546">
								<stop  offset="0" style="stop-color:#EA64FA"/>
								<stop  offset="1" style="stop-color:#8B01FF"/>
							</linearGradient>
							<polygon fill="url(#SVGID_3_)" points="656.441,1010.193 656.441,1123.243 613.245,1100.01 613.245,1010.193 							"/>
							<linearGradient id="SVGID_4_" gradientUnits="userSpaceOnUse" x1="686.775" y1="876.4324" x2="686.775" y2="1114.2552">
								<stop  offset="0" style="stop-color:#EA64FA"/>
								<stop  offset="1" style="stop-color:#8B01FF"/>
							</linearGradient>
							<polygon fill="url(#SVGID_4_)" points="717.109,952.353 717.109,1081.32 681.206,1062.842 681.206,960.26 656.441,972.686 
								656.441,920.903 							"/>
						</g>
					</g>
					<g>
						<g>
							<linearGradient id="SVGID_5_" gradientUnits="userSpaceOnUse" x1="582.9113" y1="876.4324" x2="582.9113" y2="1114.2551">
								<stop  offset="0" style="stop-color:#EA64FA"/>
								<stop  offset="1" style="stop-color:#8B01FF"/>
							</linearGradient>
							<polygon fill="url(#SVGID_5_)" points="552.578,1047.785 552.578,918.819 588.479,937.297 588.479,1039.879 
								613.245,1027.453 613.245,1079.236 							"/>
						</g>
					</g>
				</g>
			</g>
			<g>
				<g>
					<g>
						<rect x="594.961" y="963.779" fill="#FFFFFF" width="3.373" height="3.373"/>
						<rect x="601.836" y="963.779" fill="#FFFFFF" width="3.373" height="3.373"/>
					</g>
					<g>
						<rect x="594.961" y="977.336" fill="#FFFFFF" width="3.373" height="3.373"/>
						<rect x="601.836" y="977.336" fill="#FFFFFF" width="3.373" height="3.373"/>
					</g>
					<g>
						<rect x="594.961" y="990.893" fill="#FFFFFF" width="3.373" height="3.373"/>
						<rect x="601.836" y="990.893" fill="#FFFFFF" width="3.373" height="3.373"/>
					</g>
					<g>
						<rect x="594.961" y="1004.45" fill="#FFFFFF" width="3.373" height="3.373"/>
						<rect x="601.836" y="1004.45" fill="#FFFFFF" width="3.373" height="3.373"/>
					</g>
					<g>
						<rect x="594.961" y="1018.007" fill="#FFFFFF" width="3.373" height="3.373"/>
						<rect x="601.836" y="1018.007" fill="#FFFFFF" width="3.373" height="3.373"/>
					</g>
				</g>
			</g>
			<g>
				<g>
					<g>
						<rect x="671.352" y="1032.985" fill="#FFFFFF" width="3.373" height="3.373"/>
						<rect x="664.477" y="1032.985" fill="#FFFFFF" width="3.373" height="3.373"/>
					</g>
					<g>
						<rect x="671.352" y="1019.429" fill="#FFFFFF" width="3.373" height="3.373"/>
						<rect x="664.477" y="1019.429" fill="#FFFFFF" width="3.373" height="3.373"/>
					</g>
					<g>
						<rect x="671.352" y="1005.872" fill="#FFFFFF" width="3.373" height="3.373"/>
						<rect x="664.477" y="1005.872" fill="#FFFFFF" width="3.373" height="3.373"/>
					</g>
					<g>
						<rect x="671.352" y="992.316" fill="#FFFFFF" width="3.373" height="3.373"/>
						<rect x="664.477" y="992.316" fill="#FFFFFF" width="3.373" height="3.373"/>
					</g>
					<g>
						<rect x="671.352" y="978.759" fill="#FFFFFF" width="3.373" height="3.372"/>
						<rect x="664.477" y="978.759" fill="#FFFFFF" width="3.373" height="3.372"/>
					</g>
				</g>
			</g>
		</g>
	</g>
	<g>
		<g>
			<g>
				<g>
					<g>
						<g>
							<path fill="#FFFFFF" d="M769.175,1056.676h-14.554v-90.955h14.554v38.2h49.245v-38.2h14.684v90.955H818.42v-39.242h-49.245
								V1056.676z"/>
							<path fill="#FFFFFF" d="M1024.262,1056.676v-18.06h-48.723v-13.514l49.376-59.381h13.381v59.381h12.345v13.514h-12.345v18.06
								H1024.262z M1024.262,986.77l-31.833,38.332h31.833V986.77z"/>
							<path fill="#FFFFFF" d="M1063.786,965.702v13.53h66.23v-13.53H1063.786z M1063.786,1043.159v13.53h66.918v-13.53H1063.786z
								 M1123.153,1003.94h-59.367v13.482h59.367V1003.94z"/>
							<path fill="#FFFFFF" d="M1191.493,1004.573l-12.732,2.208c-1.557-5.023-5.975-7.537-13.253-7.537
								c-3.291,0-5.979,0.651-8.058,1.95c-2.078,1.298-3.116,3.076-3.116,5.326c0,2.946,2.164,5.198,6.496,6.757l15.202,5.197
								c5.803,2.167,10.028,4.808,12.669,7.928c2.642,3.117,3.964,6.972,3.964,11.563c0,6.497-2.384,11.522-7.146,15.072
								c-4.767,3.555-11.045,5.33-18.843,5.33c-7.621,0-13.816-1.67-18.581-5.004c-4.762-3.333-7.622-7.947-8.575-13.838
								l12.736-1.949c0.605,2.685,2.209,4.853,4.808,6.497c2.595,1.645,5.888,2.469,9.872,2.469c3.725,0,6.778-0.735,9.162-2.209
								c2.381-1.472,3.574-3.465,3.574-5.978c0-3.203-2.73-5.802-8.189-7.796l-15.07-5.068c-5.288-1.818-9.122-4.157-11.503-7.017
								c-2.381-2.857-3.573-6.496-3.573-10.914c0-6.496,2.297-11.477,6.887-14.942c4.593-3.462,10.699-5.197,18.321-5.197
								c6.844,0,12.475,1.539,16.893,4.613C1187.857,995.11,1190.54,999.289,1191.493,1004.573z"/>
							<path fill="#FFFFFF" d="M1198.767,1000.933v-11.824h10.267v-13.383h13.512v13.383h17.932v11.824h-17.932v33.265
								c0,2.686,0.865,4.937,2.6,6.757c1.73,1.819,3.898,2.728,6.497,2.728h8.835v12.994h-9.877c-6.064,0-11.174-1.948-15.332-5.847
								c-4.158-4.071-6.236-9.008-6.236-14.813v-35.083H1198.767z"/>
							<path fill="#FFFFFF" d="M1282.319,987.42c8.751,0,16.242,2.988,22.479,8.965v-7.276h13.513v67.567h-13.513v-7.277
								c-6.236,5.978-13.727,8.968-22.479,8.968c-9.443,0-17.368-3.381-23.776-10.137c-6.324-6.669-9.486-15.115-9.486-25.337
								c0-10.221,3.161-18.667,9.486-25.337C1264.95,990.799,1272.875,987.42,1282.319,987.42z M1283.75,1000.933
								c-5.808,0-10.7,2.123-14.685,6.366c-3.985,4.074-5.975,9.272-5.975,15.594c0,6.236,1.99,11.478,5.975,15.722
								c4.07,4.158,8.965,6.236,14.685,6.236c5.888,0,10.826-2.078,14.81-6.236c3.985-4.244,5.976-9.486,5.976-15.722
								c0-6.322-1.992-11.52-5.976-15.594C1294.576,1003.056,1289.638,1000.933,1283.75,1000.933z"/>
							<path fill="#FFFFFF" d="M1327.923,1000.933v-11.824h10.266v-13.383h13.513v13.383h17.931v11.824h-17.931v33.265
								c0,2.686,0.865,4.937,2.6,6.757c1.729,1.819,3.896,2.728,6.496,2.728h8.835v12.994h-9.877
								c-6.062,0-11.174-1.948-15.332-5.847c-4.157-4.071-6.236-9.008-6.236-14.813v-35.083H1327.923z"/>
							<path fill="#FFFFFF" d="M1448.247,1027.829h-56.131c1.037,5.286,3.616,9.595,7.731,12.93
								c4.111,3.336,8.986,5.003,14.618,5.003c7.623,0,13.598-2.815,17.931-8.446l13.252,4.027
								c-3.116,5.287-7.427,9.443-12.929,12.475c-5.501,3.031-11.586,4.549-18.255,4.549c-10.396,0-19.014-3.381-25.859-10.137
								c-6.928-6.757-10.393-15.203-10.393-25.337c0-10.048,3.335-18.494,10.002-25.337c6.758-6.757,15.159-10.136,25.208-10.136
								c10.048,0,18.364,3.379,24.947,10.136c6.758,6.755,10.137,15.201,10.137,25.337
								C1448.507,1023.24,1448.42,1024.886,1448.247,1027.829z M1392.247,1017.046h42.357c-1.213-5.023-3.812-9.116-7.797-12.281
								c-3.986-3.16-8.576-4.741-13.77-4.741c-4.938,0-9.339,1.581-13.19,4.741
								C1395.992,1007.93,1393.457,1012.023,1392.247,1017.046z"/>
						</g>
					</g>
				</g>
			</g>
			<path fill="#FFFFFF" d="M910.071,965.702v19.34c-1.029,0.686-2.01,1.422-2.99,2.157c-4.412,3.432-7.991,7.647-10.54,12.354
				v-33.851H910.071z"/>
			<path fill="#FFFFFF" d="M904.189,1045.218c3.726-5.148,5.882-11.422,5.882-18.187v31.326h-13.53v-5.589
				C899.533,1050.757,902.13,1048.159,904.189,1045.218z"/>
			<path fill="#FFFFFF" d="M931.445,988.547c-8.088,0-15.491,2.745-21.374,7.354c-8.235,6.374-13.53,16.373-13.53,27.6v4.216
				c0,9.805-7.942,17.796-17.795,17.796c-9.854,0-17.795-7.991-17.795-17.796v-38.63h-13.53v37.944
				c0,17.305,14.021,31.326,31.326,31.326c6.617,0,12.745-2.06,17.795-5.589c2.991-2.009,5.589-4.608,7.648-7.549
				c1.666,2.157,3.676,4.118,5.882,5.833c5.883,4.608,13.286,7.305,21.374,7.305c19.266,0,34.855-15.59,34.855-34.856
				C966.301,1004.234,950.711,988.547,931.445,988.547z M931.445,1043.747c-11.176,0-20.246-9.07-20.246-20.247
				c0-11.177,9.07-20.246,20.246-20.246c11.177,0,20.246,9.069,20.246,20.246C951.691,1034.677,942.622,1043.747,931.445,1043.747z"
				/>
		</g>
	</g>
</g>
</svg>
